<?xml version="1.0" encoding="UTF-8"?>
<svg id="Camada_1" xmlns="http://www.w3.org/2000/svg" viewBox="0 0 1000 251">
  <defs>
    <style>
      .cls-1, .cls-2 {
        fill: #1d1d1b;
      }

      .cls-3 {
        fill: #fff;
      }

      .cls-4 {
        letter-spacing: .01em;
      }

      .cls-5 {
        letter-spacing: .02em;
      }

      .cls-2 {
        font-family: InstrumentSans-Regular, 'Instrument Sans';
        font-size: 196.5px;
        font-variation-settings: 'wdth' 100, 'wght' 400;
      }
    </style>
  </defs>
  <text class="cls-2" transform="translate(275.22 199.58)"><tspan x="0" y="0">A</tspan><tspan class="cls-4" x="143.05" y="0">r</tspan><tspan class="cls-5" x="219.1" y="0">t</tspan><tspan x="296.91" y="0">file</tspan></text>
  <rect class="cls-1" x="54.84" y="56.73" width="142.86" height="142.86" rx="30.97" ry="30.97"/>
  <path class="cls-3" d="M49.36,126.16v-17.75h139.81v17.75H49.36ZM93.35,211.81v-122.2c0-12.18,3.52-21.67,10.57-28.46,7.05-6.79,17.8-10.18,32.25-10.18,3.48,0,6.22.18,8.22.52,2,.35,30.07-6.64,31.46-6.12v32.75c-1.22-.35-14.58-6.79-31.46-9.92-2.17-.4-4.48-.52-6.92-.52-8.01,0-13.88,2-17.62,6.01-3.74,4.01-5.61,9.66-5.61,16.97v121.16h-20.89ZM175.85,108.41v-54.83h24.02v54.83h-24.02ZM177.42,206.2v-97.79h20.89v97.79h-20.89Z"/>
</svg>