<?xml version="1.0" encoding="UTF-8"?>
<svg id="Camada_1" xmlns="http://www.w3.org/2000/svg" viewBox="0 0 1000 251">
  <g>
    <path d="M282.3,199.58l54.63-141.48h14.15l-53.25,141.48h-15.52ZM309.41,142.4h73.88v14.15h-73.88v-14.15ZM394.7,199.58l-53.25-141.48h15.13l54.63,141.48h-16.51Z"/>
    <path d="M434,199.58v-100.21h14.74v25.54h.98v74.67h-15.72ZM449.71,147.31l-2.55-23.78c2.36-8.51,6.55-15,12.58-19.45,6.02-4.45,12.97-6.68,20.83-6.68,3.27,0,5.5.26,6.68.79v15.13c-.66-.26-1.57-.42-2.75-.49-1.18-.06-2.62-.1-4.32-.1-9.96,0-17.52,2.98-22.7,8.94-5.18,5.96-7.76,14.51-7.76,25.64Z"/>
    <path d="M497.66,112.73v-13.36h66.22v13.36h-66.22ZM550.13,201.35c-11.14,0-19.23-2.52-24.27-7.57-5.04-5.04-7.57-12.35-7.57-21.91v-95.89l15.72-5.9v101.59c0,5.63,1.44,9.76,4.32,12.38,2.88,2.62,7.6,3.93,14.15,3.93,2.62,0,4.88-.16,6.78-.49,1.9-.33,3.44-.75,4.62-1.28v13.36c-1.31.52-3.18.95-5.6,1.28-2.43.33-5.14.49-8.15.49Z"/>
    <path d="M575.47,112.73v-13.36h92.75v13.36h-92.75ZM596.11,199.58v-114.36c0-9.17,2.65-16.31,7.96-21.42,5.31-5.11,13.39-7.66,24.27-7.66,2.62,0,4.68.13,6.19.39,1.5.26,2.78.59,3.83.98v12.38c-.92-.26-2.2-.52-3.83-.79-1.64-.26-3.37-.39-5.21-.39-6.03,0-10.45,1.51-13.26,4.52-2.82,3.01-4.22,7.27-4.22,12.77v113.58h-15.72ZM658.2,76.57v-18.47h18.08v18.47h-18.08ZM659.38,199.58v-100.21h15.72v100.21h-15.72Z"/>
    <path d="M704.77,199.58V58.1h15.72v141.48h-15.72Z"/>
    <path d="M793,201.55c-9.56,0-18.01-2.26-25.35-6.78-7.34-4.52-13.1-10.71-17.29-18.57-4.19-7.86-6.29-16.9-6.29-27.12s2.06-19.22,6.19-27.02c4.13-7.79,9.92-13.85,17.39-18.18,7.47-4.32,16.04-6.49,25.74-6.49s17.39,2.03,24.27,6.09c6.88,4.06,12.18,9.76,15.92,17.1,3.73,7.34,5.6,15.98,5.6,25.94,0,1.31-.03,2.55-.1,3.73-.07,1.18-.23,2.49-.49,3.93h-82.73v-13.17h73.1l-5.11,7.27c0-12.05-2.65-21.32-7.96-27.8-5.31-6.48-12.81-9.73-22.5-9.73s-17.98,3.44-24.07,10.32c-6.09,6.88-9.14,16.15-9.14,27.8s3.05,21.45,9.14,28.59c6.09,7.14,14.25,10.71,24.46,10.71,6.42,0,12.05-1.41,16.9-4.22,4.85-2.82,8.38-6.84,10.61-12.08h14.93c-3.28,9.17-8.74,16.41-16.41,21.71-7.66,5.31-16.6,7.96-26.82,7.96Z"/>
  </g>
  <rect x="54.84" y="126.16" width="38.51" height="73.42"/>
  <rect x="114.23" y="126.16" width="63.19" height="73.42"/>
  <path d="M93.35,89.61c0-12.18,3.52-21.67,10.57-28.46,1.75-1.68,3.72-3.16,5.93-4.42h-55.01v51.68h38.51v-18.8Z"/>
  <path d="M137.47,67.67c-8.01,0-13.88,2-17.62,6.01-3.74,4.01-5.61,9.66-5.61,16.97v17.75h61.62v-30.29c-1.22-.35-14.58-6.79-31.46-9.92-2.17-.4-4.48-.52-6.92-.52Z"/>
</svg>