<?xml version="1.0" encoding="UTF-8"?>
<svg id="Camada_2" xmlns="http://www.w3.org/2000/svg" viewBox="0 0 122.58 142.86">
  <g id="Camada_1-2" data-name="Camada_1">
    <path d="M59.39,69.43v73.42h52.49c3.76,0,7.36-.67,10.7-1.9v-71.52h-63.19Z"/>
    <path d="M121.01,21.39c-1.22-.35-14.58-6.79-31.46-9.92-2.17-.4-4.48-.52-6.92-.52-8.01,0-13.88,2-17.62,6.01-3.74,4.01-5.61,9.66-5.61,16.97v17.75h61.62v-30.29Z"/>
    <path d="M38.51,32.88c0-12.18,3.52-21.67,10.57-28.46,1.75-1.68,3.72-3.16,5.93-4.42h-24.03C13.87,0,0,13.87,0,30.97v20.7h38.51v-18.8Z"/>
    <path d="M0,69.43v42.45c0,17.11,13.87,30.98,30.97,30.98h7.53v-73.42H0Z"/>
  </g>
</svg>